<svg width="219" height="70" viewBox="0 0 219 70" fill="none" xmlns="http://www.w3.org/2000/svg">
<path d="M34.2982 8.94525L31.7305 34.2095L21.5053 35.1023L18.451 22.3041L17.0448 34.4554L6.82922 35.4924L0.948061 11.1484L9.83711 9.76453L12.6283 24.6079L14.0555 9.48586L21.086 9.02141L24.8986 23.9784L25.3404 8.74036L34.2982 8.94525ZM58.1065 32.5033L49.1215 33.5314L48.4992 25.2076L44.353 25.4815L44.6222 33.3941L36.5461 33.9276L35.5567 8.53621L44.1638 8.36594L44.4781 21.3451L48.4801 21.0808L47.5968 7.16144L55.8314 6.83472L58.1065 32.5033ZM75.1735 5.26726C75.176 6.40173 75.1837 7.52378 75.1967 8.63341C75.2096 9.74304 75.2054 10.8659 75.1838 12.0019L67.5666 12.9035L67.5363 15.1868L72.9084 14.8319L72.881 20.4465L67.4848 20.9841L67.4784 23.6279L71.9491 23.3326L75.1219 23.123C75.1371 24.4497 75.1459 25.7709 75.1483 27.0864C75.162 28.3891 75.182 29.6974 75.2084 31.0114L59.6929 32.3985L58.5525 6.36527L75.1735 5.26726ZM97.5015 12.4468C97.5634 13.3842 97.5356 14.2431 97.4182 15.0233C97.312 15.7908 97.1056 16.5045 96.7992 17.1645C96.4927 17.8245 96.081 18.4431 95.5639 19.0205C95.0468 19.5978 94.4139 20.1587 93.6653 20.703L98.4607 28.0631L90.4533 30.1853L87.1698 22.6892L84.9392 22.909L85.1101 30.4297L77.3584 30.9418C77.2375 28.1977 77.1114 25.466 76.98 22.7467C76.8607 20.0267 76.7466 17.2942 76.6376 14.5493C76.5704 13.1657 76.5039 11.794 76.4382 10.4344C76.3726 9.07476 76.3301 7.70153 76.3109 6.31468C77.1315 5.94664 77.9437 5.63347 78.7475 5.37517C79.5512 5.11688 80.3581 4.90666 81.1682 4.74451C81.9895 4.56955 82.8196 4.43625 83.6585 4.34462C84.5086 4.24018 85.3783 4.15858 86.2676 4.09983C87.6377 4.00932 88.9724 4.11428 90.2717 4.4147C91.5823 4.70231 92.7553 5.19214 93.7908 5.88417C94.8263 6.57621 95.6758 7.46763 96.3393 8.55842C97.0148 9.64843 97.4022 10.9446 97.5015 12.4468ZM89.4634 13.5572C89.4301 13.0524 89.3274 12.5945 89.1554 12.1834C88.9954 11.7715 88.7673 11.4245 88.471 11.1423C88.186 10.8473 87.8336 10.6291 87.4139 10.4879C87.0054 10.3338 86.5307 10.2746 85.9899 10.3104C85.7495 10.3262 85.5164 10.3597 85.2904 10.4109C85.0636 10.45 84.8441 10.5068 84.6317 10.5811L84.7863 17.3063L85.219 17.2777C85.7357 17.2436 86.2542 17.1429 86.7742 16.9758C87.3063 16.8079 87.7735 16.5718 88.1759 16.2676C88.5903 15.9626 88.9154 15.585 89.1512 15.1349C89.399 14.684 89.5031 14.1581 89.4634 13.5572ZM115.266 2.61872C115.268 3.75318 115.276 4.87523 115.289 5.98486C115.302 7.09449 115.298 8.21733 115.276 9.35338L107.659 10.2549L107.629 12.5382L113.001 12.1834L112.973 17.798L107.577 18.3355L107.571 20.9794L112.041 20.684L115.214 20.4744C115.229 21.8012 115.238 23.1223 115.241 24.4379C115.254 25.7406 115.274 27.0489 115.301 28.3628L99.7852 29.7499L98.6448 3.71672L115.266 2.61872ZM123.664 5.32293C123.69 5.88858 123.605 6.52185 123.41 7.22276C123.227 7.92288 122.941 8.62373 122.553 9.32532C122.164 10.0149 121.683 10.6804 121.11 11.3218C120.548 11.9504 119.901 12.488 119.17 12.9346C119.169 12.9226 119.154 12.7847 119.125 12.5211C119.094 12.2455 119.055 11.9162 119.005 11.5332C118.967 11.1374 118.921 10.718 118.868 10.2749C118.814 9.83181 118.77 9.43641 118.735 9.08868C117.972 8.86149 117.352 8.43769 116.877 7.8173C116.401 7.1969 116.138 6.49612 116.086 5.71494C116.052 5.19817 116.116 4.70508 116.278 4.23569C116.452 3.76551 116.696 3.35105 117.011 2.99231C117.336 2.62077 117.72 2.31775 118.164 2.08328C118.607 1.8488 119.093 1.7141 119.622 1.67916C120.138 1.64502 120.632 1.71502 121.102 1.88916C121.584 2.06251 122.005 2.31232 122.365 2.63862C122.735 2.9521 123.038 3.33044 123.272 3.77363C123.507 4.21682 123.635 4.6972 123.657 5.21477L123.664 5.32293ZM144.093 17.1906C144.202 18.8371 144.009 20.2983 143.514 21.5743C143.03 22.8374 142.316 23.9106 141.373 24.7937C140.441 25.676 139.322 26.3656 138.015 26.8623C136.72 27.3583 135.309 27.6566 133.783 27.7575C133.194 27.7964 132.54 27.7611 131.821 27.6517C131.113 27.5415 130.391 27.3961 129.655 27.2154C128.918 27.0227 128.205 26.8163 127.514 26.5964C126.835 26.3636 126.229 26.1442 125.696 25.9379L125.999 18.4584C127.061 19.0038 128.221 19.3979 129.481 19.6406C130.751 19.8705 131.987 19.9458 133.189 19.8664C133.418 19.8513 133.694 19.827 134.017 19.7936C134.34 19.7481 134.643 19.6738 134.926 19.5706C135.22 19.4546 135.463 19.2997 135.656 19.1059C135.848 18.9122 135.933 18.647 135.911 18.3105C135.896 18.0822 135.811 17.8947 135.657 17.7479C135.501 17.5892 135.306 17.4693 135.071 17.3883C134.836 17.2952 134.572 17.2341 134.281 17.2051C133.988 17.1641 133.703 17.1407 133.425 17.1349C133.147 17.1291 132.888 17.1342 132.648 17.1501C132.407 17.1659 132.215 17.1786 132.071 17.1882C131.037 17.2564 130.082 17.1385 129.205 16.8343C128.34 16.5294 127.58 16.0786 126.925 15.4822C126.281 14.8729 125.762 14.1407 125.367 13.2856C124.972 12.4185 124.74 11.4682 124.672 10.4346C124.578 9.01649 124.777 7.72993 125.268 6.57493C125.77 5.40712 126.47 4.40127 127.368 3.55738C128.277 2.70067 129.337 2.02111 130.547 1.5187C131.757 1.0163 133.023 0.721426 134.345 0.634094C134.934 0.595192 135.542 0.579134 136.17 0.585922C136.798 0.580692 137.421 0.611913 138.042 0.679586C138.674 0.746464 139.29 0.844578 139.89 0.973929C140.49 1.10328 141.062 1.27668 141.608 1.49412L141.406 8.85839C140.571 8.63596 139.696 8.46438 138.783 8.34365C137.881 8.21012 137.003 8.17153 136.15 8.2279C135.994 8.23822 135.79 8.25773 135.538 8.28642C135.298 8.3023 135.041 8.33739 134.767 8.39171C134.504 8.43321 134.236 8.49314 133.964 8.57149C133.692 8.64984 133.451 8.75024 133.242 8.87269C133.032 8.98313 132.866 9.12684 132.745 9.30383C132.624 9.48081 132.577 9.68308 132.604 9.91063C132.633 10.1742 132.744 10.3842 132.935 10.5406C133.138 10.6841 133.387 10.7944 133.681 10.8715C133.987 10.9358 134.316 10.9744 134.667 10.9874C135.03 10.9997 135.386 11.0003 135.735 10.9893C136.084 10.9663 136.408 10.9448 136.709 10.925C137.008 10.8931 137.255 10.8829 137.449 10.8942C138.414 10.8908 139.293 11.0379 140.085 11.3356C140.877 11.6333 141.557 12.0532 142.124 12.5951C142.703 13.1362 143.157 13.8003 143.487 14.5872C143.828 15.3614 144.03 16.2292 144.093 17.1906Z" fill="#ED5160"/>
<path d="M65.8984 36.6745L66.0051 68.2753L56.2579 69.3498L55.2475 52.7514L51.715 66.4202L47.942 66.6695L43.7646 54.931L44.6395 68.8255L34.7551 69.7799L33.2267 40.1247L44.2173 38.968L49.5281 52.8709L54.365 37.4364L65.8984 36.6745ZM95.1795 36.9794L84.4764 54.2224L84.8056 67.6792L74.6441 68.3505L74.0205 54.9993L66.8385 39.4976L77.6811 37.4033L80.0079 46.5511L84.8412 36.9303L95.1795 36.9794ZM121.665 64.383L110.98 65.6056L110.24 55.7071L105.309 56.0328L105.629 65.4423L96.0251 66.0768L94.8486 35.8816L105.084 35.6792L105.458 51.1139L110.217 50.7995L109.166 34.2468L118.959 33.8583L121.665 64.383ZM141.96 31.9943C141.963 33.3433 141.973 34.6777 141.988 35.9972C142.003 37.3168 141.998 38.6521 141.973 40.003L132.914 41.0751L132.878 43.7904L139.267 43.3684L139.234 50.0452L132.817 50.6845L132.809 53.8285L138.126 53.4773L141.899 53.2281C141.917 54.8058 141.928 56.3769 141.93 57.9413C141.947 59.4905 141.971 61.0464 142.002 62.6089L123.551 64.2584L122.195 33.3L141.96 31.9943ZM168.513 40.5321C168.586 41.6469 168.553 42.6682 168.414 43.5961C168.287 44.5087 168.042 45.3575 167.677 46.1423C167.313 46.9272 166.823 47.6629 166.208 48.3494C165.593 49.036 164.841 49.7029 163.951 50.3503L169.653 59.1028L160.131 61.6266L156.226 52.7122L153.574 52.9736L153.777 61.9171L144.559 62.5261C144.415 59.2629 144.265 56.0144 144.109 52.7807C143.967 49.546 143.831 46.2966 143.702 43.0324C143.622 41.387 143.543 39.7558 143.464 38.1389C143.386 36.5221 143.336 34.889 143.313 33.2398C144.289 32.8022 145.255 32.4297 146.211 32.1226C147.166 31.8154 148.126 31.5654 149.089 31.3726C150.066 31.1645 151.053 31.006 152.051 30.8971C153.062 30.7729 154.096 30.6758 155.153 30.606C156.783 30.4983 158.37 30.6231 159.915 30.9804C161.474 31.3224 162.868 31.9049 164.1 32.7279C165.331 33.5508 166.342 34.6109 167.131 35.9081C167.934 37.2043 168.395 38.7456 168.513 40.5321ZM158.954 41.8526C158.914 41.2523 158.792 40.7077 158.588 40.2189C158.397 39.729 158.126 39.3163 157.774 38.9807C157.435 38.6299 157.016 38.3705 156.517 38.2025C156.031 38.0193 155.466 37.949 154.823 37.9914C154.537 38.0103 154.26 38.0502 153.991 38.111C153.722 38.1575 153.461 38.225 153.208 38.3135L153.392 46.3109L153.906 46.2769C154.521 46.2363 155.137 46.1167 155.756 45.9179C156.389 45.7182 156.944 45.4375 157.423 45.0757C157.916 44.713 158.302 44.264 158.583 43.7288C158.877 43.1925 159.001 42.5671 158.954 41.8526ZM196.575 44.2333C196.661 45.5338 196.594 46.8014 196.374 48.036C196.154 49.2564 195.792 50.4142 195.291 51.5096C194.803 52.604 194.181 53.6212 193.425 54.5611C192.682 55.4857 191.824 56.296 190.851 56.9919C189.892 57.6868 188.832 58.2521 187.669 58.6877C186.505 59.1091 185.259 59.3637 183.93 59.4515C182.644 59.5365 181.404 59.4533 180.21 59.202C179.031 58.9498 177.914 58.5642 176.861 58.0453C175.807 57.5121 174.838 56.8584 173.954 56.0842C173.084 55.2948 172.322 54.4121 171.669 53.4361C171.029 52.4448 170.506 51.3741 170.1 50.2239C169.708 49.0728 169.47 47.8612 169.386 46.5892C169.304 45.3458 169.374 44.1211 169.596 42.9151C169.817 41.6948 170.171 40.5374 170.658 39.443C171.16 38.3476 171.782 37.3305 172.524 36.3915C173.266 35.4525 174.108 34.6289 175.052 33.9206C176.01 33.2114 177.056 32.6399 178.19 32.2062C179.324 31.7724 180.534 31.513 181.82 31.4281C183.893 31.2912 185.8 31.4881 187.544 32.0189C189.301 32.5487 190.82 33.3742 192.1 34.4954C193.393 35.6014 194.424 36.983 195.194 38.6403C195.977 40.2824 196.438 42.1467 196.575 44.2333ZM187.094 45.4195C187.053 44.8049 186.921 44.2179 186.698 43.6585C186.487 43.0839 186.196 42.5864 185.824 42.166C185.451 41.7313 184.998 41.3952 184.465 41.1577C183.946 40.9049 183.358 40.8002 182.701 40.8436C182.029 40.888 181.437 41.0491 180.924 41.327C180.411 41.6049 179.976 41.971 179.619 42.4252C179.274 42.8642 179.021 43.3762 178.859 43.9611C178.696 44.5317 178.635 45.1314 178.676 45.7602C178.716 46.3605 178.841 46.9551 179.052 47.544C179.264 48.1329 179.557 48.659 179.932 49.1223C180.307 49.5855 180.754 49.9507 181.275 50.2178C181.809 50.4839 182.412 50.5948 183.084 50.5504C183.755 50.5061 184.347 50.3378 184.859 50.0456C185.384 49.7382 185.818 49.3507 186.16 48.8831C186.501 48.4012 186.753 47.8607 186.914 47.2615C187.076 46.6623 187.135 46.0483 187.094 45.4195ZM210.143 50.1409L202.897 50.6195C202.697 49.1112 202.699 47.8407 202.903 46.8081C203.107 45.7611 203.415 44.8867 203.828 44.1848C204.255 43.4676 204.74 42.8829 205.284 42.4307C205.842 41.9632 206.382 41.5615 206.905 41.2255C207.442 40.8743 207.908 40.542 208.304 40.2288C208.714 39.9147 208.983 39.538 209.112 39.0989C209.195 38.835 209.204 38.5401 209.14 38.2143C209.074 37.8741 208.903 37.5624 208.626 37.2793C208.363 36.9952 207.975 36.7697 207.461 36.6026C206.961 36.4204 206.318 36.3552 205.532 36.4071C205.018 36.4411 204.406 36.5317 203.698 36.679C203.004 36.811 202.277 37.0025 201.519 37.2536C200.759 37.4904 200.01 37.7767 199.272 38.1126C198.546 38.4332 197.895 38.792 197.319 39.1889L195.82 30.8477C196.328 30.4983 196.9 30.1376 197.536 29.7655C198.185 29.3781 198.901 29.0293 199.685 28.7192C200.467 28.3948 201.324 28.1157 202.256 27.8819C203.188 27.648 204.197 27.4953 205.283 27.4235C207.041 27.3074 208.715 27.4408 210.305 27.8238C211.909 28.2059 213.328 28.8298 214.562 29.6957C215.797 30.5615 216.803 31.6649 217.58 33.0059C218.357 34.3326 218.804 35.8892 218.922 37.6757C219.012 39.0334 218.891 40.1394 218.56 40.9939C218.228 41.834 217.779 42.5383 217.214 43.1067C216.649 43.6752 216.006 44.1626 215.287 44.569C214.567 44.9754 213.864 45.4165 213.178 45.8925C212.505 46.3532 211.889 46.9107 211.329 47.5649C210.784 48.2181 210.388 49.0768 210.143 50.1409ZM211.589 55.7296C211.63 56.3584 211.547 56.9524 211.34 57.5116C211.133 58.0707 210.836 58.564 210.448 58.9916C210.075 59.4325 209.624 59.7852 209.096 60.0498C208.569 60.3286 207.999 60.4883 207.384 60.5289C206.755 60.5704 206.161 60.4877 205.602 60.2806C205.044 60.0878 204.544 59.7979 204.102 59.4108C203.675 59.037 203.323 58.5867 203.044 58.0596C202.779 57.5316 202.626 56.9532 202.585 56.3244C202.544 55.7099 202.62 55.1163 202.812 54.5439C203.018 53.9704 203.308 53.4704 203.681 53.0438C204.068 52.602 204.526 52.2416 205.053 51.9628C205.58 51.6839 206.158 51.5238 206.786 51.4822C207.401 51.4416 207.988 51.5249 208.547 51.7319C209.106 51.939 209.599 52.2366 210.027 52.6246C210.468 52.9974 210.828 53.4545 211.108 53.9958C211.388 54.5371 211.548 55.115 211.589 55.7296Z" fill="#FF8B59"/>
</svg>
